<svg id="OBJECTS" xmlns="http://www.w3.org/2000/svg" xmlns:xlink="http://www.w3.org/1999/xlink" viewBox="0 0 1200 800"><defs><clipPath id="clip-path"><rect width="1200" height="800" fill="none"/></clipPath><clipPath id="clip-path-2"><circle cx="584.72" cy="559.67" r="454.5" transform="translate(-224.49 577.39) rotate(-45)" fill="none"/></clipPath></defs><title>Mesa de trabajo 1cobid</title><path d="M1015.5,95.55c47,0,85.13,32.43,85.13,72.43s-38.11,72.44-85.13,72.44a98.5,98.5,0,0,1-27.12-3.81C980,244.07,965,252.86,939.6,252.8c0,0,11.39-16.45,16.12-33.28-15.63-13.14-25.34-31.37-25.34-51.54C930.38,128,968.49,95.55,1015.5,95.55Z" fill="#e5f8ff" fill-rule="evenodd"/><path d="M182.14,46.44c-47,0-85.12,32.43-85.12,72.44s38.11,72.43,85.12,72.43a98.52,98.52,0,0,0,27.13-3.81c8.34,7.46,23.39,16.25,48.78,16.19,0,0-11.39-16.45-16.13-33.28,15.64-13.14,25.35-31.36,25.35-51.53C267.27,78.87,229.16,46.44,182.14,46.44Z" fill="#e5f8ff" fill-rule="evenodd"/><text transform="translate(118.59 105.44)" font-size="17.51" fill="#7ca5ff" font-family="HelveticaNeue-Bold, Helvetica Neue" font-weight="700">Thank you<tspan x="0" y="21.02">for your support!</tspan></text><text transform="translate(118.59 148.18)" font-size="17.51" fill="#7ca5ff" font-family="HelveticaNeue-ThinItalic, Helvetica Neue" font-weight="200" font-style="italic">#stayhome</text><text transform="translate(949.01 152.8)" font-size="17.51" fill="#7ca5ff" font-family="HelveticaNeue-Bold, Helvetica Neue" font-weight="700"><tspan letter-spacing="-0.11em">Y</tspan><tspan x="9.74" y="0">ou can help us</tspan><tspan x="-1.91" y="21.02">staying at home</tspan></text><text transform="translate(950.99 195.54)" font-size="17.51" fill="#7ca5ff" font-family="HelveticaNeue-ThinItalic, Helvetica Neue" font-weight="200" font-style="italic">#st<tspan x="22.38" y="0" letter-spacing="-0.01em">r</tspan><tspan x="27.15" y="0" letter-spacing="0em">onge</tspan><tspan x="64.14" y="0" letter-spacing="0.03em">r</tspan><tspan x="69.62" y="0" letter-spacing="-0.01em">t</tspan><tspan x="73.91" y="0">ogether</tspan></text><g clip-path="url(#clip-path)"><path d="M130.23,559.67c0-251,203.48-454.49,454.5-454.49s454.49,203.48,454.49,454.49-203.48,454.5-454.49,454.5S130.23,810.69,130.23,559.67Z" fill="#7ca5ff" fill-rule="evenodd"/><path d="M462.14,125V986.42" fill="none" stroke="#4c3198" stroke-linecap="round" stroke-linejoin="round" stroke-width="4"/><path d="M708.68,125V986.42" fill="none" stroke="#4c3198" stroke-linecap="round" stroke-linejoin="round" stroke-width="4"/><path d="M131.38,520.6h907.15" fill="none" stroke="#4c3198" stroke-linecap="round" stroke-linejoin="round" stroke-width="4"/><g clip-path="url(#clip-path-2)"><path d="M751.82,1193s-12.64-93.23-48.9-141.83-55.28-60.24-36.36-90.65,16-37.74,4.66-65.31-36.1-48.44-5-77.1,7.82-23.05-2.06-48.48,5.17-29.15,4.59-44.41,19.29-11.78,23.92,17.86,5.88,13.85,39.78,47.76,21,68.86,21.73,100.14,53.08,68.06,44.53,81.32c-26,40.39,22.93,69.12,11.15,104.28S751.82,1193,751.82,1193Z" fill="#c7e7ff" fill-rule="evenodd"/><path d="M678.4,717.19c4.55,13.54,8.36,30.92-.17,38.19-14.46,12.32,21,33.37,26,59.09s-11.65,38.44,1.21,55.9,16.38,71,13.69,97.41,11.18,51.87,28.42,82.78S751.81,1193,751.81,1193s46.31-81.27,58.09-116.43-37.21-63.88-11.17-104.27c8.55-13.26-43.77-50-44.5-81.33s12.17-66.23-21.73-100.13-35.15-18.12-39.79-47.76C690.33,727.85,684,719.63,678.4,717.19Z" fill="#a5d8ff" fill-rule="evenodd"/><path d="M876.29,1014.17s-37.41-103.69-27.6-162.92,22.38-75.25-12.59-105-36-38.28-39.57-70.27,9.75-59-36.35-84.78-20.06-23.71-23.91-53.12S715.56,507.23,708,490.52s-25.36-9.45-14.08,23.63,1.61,16.1-13.74,58.94,16.11,78.62,32.13,112.79-16,83.37-.47,96.31c47.35,39.39,14.34,79.24,44.8,115.44S876.29,1014.17,876.29,1014.17Z" fill="#0038a9" fill-rule="evenodd"/><path d="M694.18,483.49c2.74,15.53,8.28,35.11,20.6,41.53,20.88,10.88-2.93,40,5.89,68.87s32.08,39.8,28.72,61.05S771.21,735.08,788,763.36s16.71,58.4,16.23,95.06,72.07,155.75,72.07,155.75S787,933.82,756.58,897.63s2.58-76-44.77-115.44c-15.54-12.94,16.45-62.15.43-96.32s-47.46-69.94-32.11-112.78,25-25.87,13.74-59C688.09,497.18,690,487.12,694.18,483.49Z" fill="#0247d2" fill-rule="evenodd"/><path d="M497.41,1067s9.06-93.65,43.41-143.61,52.93-62.32,32.85-92-17.42-37.1-7.17-65.09,34.21-49.79,2-77.23-8.7-22.73.19-48.51-6.28-28.94-6.29-44.21-19.72-11-23.22,18.77-5.34,14.06-37.91,49.25S482.93,734,483.41,765.28,433,835.34,442,848.26c27.57,39.35-20.25,70-7.13,104.63S497.41,1067,497.41,1067Z" fill="#246cff" fill-rule="evenodd"/><path d="M552.48,588.73c-4,13.7-7.17,31.21,1.64,38.15,14.92,11.76-19.74,34.15-23.76,60s13.12,38,.94,55.9-13.63,71.58-9.93,97.87-9.18,52.26-25.21,83.81S497.43,1067,497.43,1067,448,987.56,434.9,952.88s34.73-65.27,7.15-104.62c-9.05-12.92,41.81-51.7,41.34-83s-14.7-65.7,17.87-100.89,34.42-19.46,37.91-49.26C541,599.84,547,591.38,552.48,588.73Z" fill="#0247d2" fill-rule="evenodd"/><path d="M298.18,1054s37.41-103.69,27.6-162.92-22.38-75.25,12.59-105,36-38.28,39.57-70.27-9.75-59,36.35-84.78,20.06-23.71,23.91-53.12,20.71-30.82,28.31-47.53,25.36-9.45,14.08,23.63-1.61,16.1,13.74,58.94-16.11,78.62-32.13,112.79,16,83.37.47,96.31c-47.35,39.39-14.34,79.24-44.8,115.43S298.18,1054,298.18,1054Z" fill="#ff3a8d" fill-rule="evenodd"/><path d="M480.29,523.3c-2.74,15.53-8.28,35.11-20.6,41.53-20.88,10.88,2.93,40-5.89,68.87s-32.08,39.8-28.72,61-21.82,80.13-38.61,108.41-16.71,58.41-16.23,95.07S298.17,1054,298.17,1054s89.26-80.35,119.72-116.55-2.58-76,44.77-115.43c15.54-12.94-16.46-62.15-.43-96.32s47.46-69.94,32.11-112.78S469.31,587,480.6,554C486.38,537,484.5,526.93,480.29,523.3Z" fill="#b5249b" fill-rule="evenodd"/></g><path d="M293,902.12S249,874.18,182.42,837,71.5,725.13,76.73,662.22s-12.08-67.7-21.87-121.89,8.26-58.52,51.17-5.56,53.11,23.75,80.28,63.38-16.56,57.69,14.49,77.6,47.6-15.68,71.37,66.33S293,902.12,293,902.12Z" fill="#0247d2" fill-rule="evenodd"/><path d="M60.66,497.35a7.16,7.16,0,0,0-4.24,2.47c18.62,39.71,65.86,97.52,71,141.45S130.5,714,167.1,741.35,293,902.12,293,902.12s2.91-78-20.86-160-40.33-46.42-71.38-66.34,12.65-38-14.52-77.63S149,587.75,106,534.79C84.58,508.31,69.32,496.11,60.66,497.35Z" fill="#013eba" fill-rule="evenodd"/><path d="M906.91,870s41.54-24.88,104-57.49,107.78-104,107.82-167.12,15.91-66.7,28.76-120.07-3-58.91-45.43-9-49.36,20.1-76.67,57.78,10.49,58.64-18.82,76.41-41.47-18.86-68.93,61.31S906.91,870,906.91,870Z" fill="#00a3eb" fill-rule="evenodd"/><path d="M1145.5,482.05a6.34,6.34,0,0,1,3.62,2.75c-19.67,38.34-66.34,92.8-74.2,136.25s-8.26,72.27-43.11,97.12S906.9,870,906.9,870s3.25-78,30.72-158.16,39.61-43.56,68.93-61.32-8.48-38.75,18.84-76.43,34.22-7.84,76.65-57.75C1123.25,491.36,1137.84,480.23,1145.5,482.05Z" fill="#00c8eb" fill-rule="evenodd"/><path d="M317.08,902.12s-39-121.38-87.76-174-70.36-61.6-61-109.42S172.78,562,154,528.78s-48.57-52.51-27-102.33.86-33.92-15.94-64.73-3.45-41.21-8.4-61.62,15.1-22.8,28.09,15.57,9.62,16.61,51.9,50.28,40,85.48,49.69,127.46,70.5,72.94,66.13,93.91c-13.33,63.84,41.9,85.15,40.73,136.83S317.08,902.12,317.08,902.12Z" fill="#1bddff" fill-rule="evenodd"/><path d="M109.57,285.85c8.27,16.66,16.93,38.76,10.84,51.63C110.1,359.29,150.2,375,162.42,408s-.09,56.07,17.27,75,36.16,90,41.2,126.65S246.56,675.72,272,711.3s45.09,190.82,45.09,190.82,21-126.3,22.14-178-54.09-73-40.76-136.81c4.38-21-56.38-52-66.1-93.94s-7.42-93.77-49.69-127.45-38.92-11.9-51.91-50.27C124.09,296,115.62,287.16,109.57,285.85Z" fill="#00c8eb" fill-rule="evenodd"/><path d="M937.61,833.62s33-123.15,79.16-178.13,67.27-65,55.57-112.27-7.21-56.4,9.94-90.46,46-54.82,22-103.53-2.52-33.84,12.76-65.43,1.43-41.33,5.38-62-16.19-22-27.29,16.93-8.81,17-49.39,52.75-35.75,87.33-43.4,129.74-66.86,76.3-61.47,97c16.43,63.12-37.69,87.1-34,138.66S937.61,833.62,937.61,833.62Z" fill="#0247d2" fill-rule="evenodd"/><path d="M1114.78,208c-7.45,17-15,39.54-8.31,52.1,11.37,21.27-27.91,38.95-38.51,72.45s2.82,56-13.58,75.81-31.72,91.67-35,128.51S997,604,973.34,640.82s-35.71,192.8-35.71,192.8-27.12-125.13-30.81-176.69,50.46-75.53,34-138.64c-5.4-20.73,53.78-54.65,61.43-97s2.83-94,43.41-129.73,38.29-13.79,49.39-52.75C1100.78,218.78,1108.8,209.55,1114.78,208Z" fill="#246cff" fill-rule="evenodd"/><path d="M1179,597.4s-38.92-16.13-52.18,6.9c-9.29,16.13-15.25,23.53-21.17,28.28,0,0,14.85,4.82,34.61-15.7S1179,597.4,1179,597.4Z" fill="#ff3a8d" fill-rule="evenodd"/><path d="M144.47,623.69s-41.7-6-48.86,19.59c-5,17.93-9,26.58-13.52,32.64,0,0,15.59,1,29.65-23.77S144.47,623.69,144.47,623.69Z" fill="#a5d8ff" fill-rule="evenodd"/><path d="M1068.93,714.57s-40-76.72,7.76-128.31c33.44-36.14,40.15-60,38.79-95.25,0,0,19,51-22.5,115.52S1068.93,714.57,1068.93,714.57Z" fill="#ff3a8d" fill-rule="evenodd"/><path d="M58.67,704.76S27.27,639.83,73.2,598.48c32.19-29,39.62-48.56,40.48-77.88,0,0,14,42.89-27,95.21S58.67,704.76,58.67,704.76Z" fill="#a5d8ff" fill-rule="evenodd"/><path d="M467.79,344.44s-46.7-48.22-22.89-105.54,11.67-74.45-22.16-97.9c0,0,2.95-8.4-21.14-8.14s-82.3,12.61-90.15,59S322.28,247.6,291.69,258s-45.73,15.9-34.64,45.86-6.43,21.58-22.46,29.7c-24.5,12.42-14.07,24.5-6.49,40.39s7.84,11.2-15.7,37-29.77,60.71,24.36,75.56,149.93-21.11,149.93-21.11Z" fill="#1bddff" fill-rule="evenodd"/><path d="M422.74,141s-48.58-1.56-77.65,19.58c-27.29,19.84-23.06,33.57-18.36,71.64s-19.19,29.94-44.39,44.45c-28.14,16.2,10.47,27.35-2.94,46.64s-45.12,21.07-33.74,45.36,25.73,28.82,5.24,45.2-50.68,27.37-33.4,49,38.85,24.69,38.85,24.69" fill="none" stroke="#00c8eb" stroke-linecap="round" stroke-linejoin="round" stroke-width="2"/><path d="M432,149.3s-70.82,3.08-79.1,35.4,12.16,72.67-11.38,82.76-55.08,20.94-28.7,38.79,22,40.86-11.38,48.87-25.34,26.12-3.62,41.64-14.37,24.51-35.58,39,18.05,43.1,49.52,47.73" fill="none" stroke="#00c8eb" stroke-linecap="round" stroke-linejoin="round" stroke-width="2"/><path d="M368.43,258.51s6.45,13.94-15.83,21.65-21.4,20,6.2,33.58c23.43,11.5,40.57,29.24,3,49S319,379.19,354.14,408.6s-9.84,29.86-23.63,44.18S359.28,469,364.29,472" fill="none" stroke="#00c8eb" stroke-linecap="round" stroke-linejoin="round" stroke-width="2"/><path d="M574.56,328.85s-57.78-6.24-97.25-5.34-61.24-20.75-98.8-20.23-53.68,17-53.68,17l21,27.88s77.58,20.17,124.53,49.74,67.56,70.61,67.56,70.61Z" fill="#246cff" fill-rule="evenodd"/><path d="M484.05,534.36s-70.35,16-74-51.56l54.06-8.67Z" fill="#00a3eb" fill-rule="evenodd"/><path d="M672.57,216.34l-15.5,75.85-35.23,22.46-13-121.59Z" fill="#f5d4a6" fill-rule="evenodd"/><path d="M719.15,685.76l-14.06,534.59s-21.3,21.41-46.17,2.88L624.76,702.44l-32.49,519.39s-25,19.43-43.44-3.48L536.26,680.44Z" fill="#00c8eb" fill-rule="evenodd"/><path d="M719.15,685.76l-182.89-5.32,0,2.1.11,5.17L538,754.15c14.5,4,31.86,6.31,52.67,8.57,7.66,40.78,16.54,91.83,21.83,135.62l12.18-194.16,4.18,60.43c25.79,0,56.85-1,88.44-7.67l1.57-61.3Z" fill="#00a3eb" fill-rule="evenodd"/><path d="M556.64,1215.8,541,673.37" fill="none" stroke="#0093eb" stroke-linecap="round" stroke-linejoin="round" stroke-width="2"/><path d="M700,1218.35s5.07-513.13,5.07-538.79" fill="none" stroke="#0093eb" stroke-linecap="round" stroke-linejoin="round" stroke-width="2"/><path d="M500,429.18c-.22-63.87,69.45-97.61,69.45-97.61,41.15-15.93,18-72.34,18-72.34l57.05,7.68s-16.36,39.37,18.18,59.61c26.41,15.47,81.31,18.31,86.37,81.21l-29.88,37-6.68,237.48S618.48,683.53,542.48,657l-1.65-196.52Z" fill="#ffccba" fill-rule="evenodd"/><path d="M587.51,259.23,644.6,267s-5.88,18.8-1.6,36.13c-9.71,9.57-30.59,24.27-52.81,9.16C600,289.75,587.51,259.23,587.51,259.23Z" fill="#ffbaa1" fill-rule="evenodd"/><path d="M662.76,326.53s-33.94,63.6-55.15,43.29c0,0-27.28-24.21-33.05-40.68L560,351.1,577,420.39l38.25,19.3,63.24-33.87Z" fill="#ffbaa1" fill-rule="evenodd"/><path d="M613.25,125.14c36.13,1.68,48,29.33,48,29.33,39.4,11.05,33,76.34,28.46,113.27s-40.36,49.94-52.48,51.68-5.41-2.9-5.41-2.9c20.71-17.32,18.44-73,18.44-73s-2,4.45-5.15,10.77l-16.62-36.77s-38.27,26.38-34.09,52.16c3.2,19.73-1.55,40.7-7.23,45.93-27.95,10.79-47.92,1.15-52.54-2-6.37-4.36,5.22-4.46,7.77-18.17,3.3-17.75-1.45-51.72-6.54-105.61-3.37-35.61,32.7-55.69,32.7-55.69C586.45,126.9,601.2,124.58,613.25,125.14Z" fill="#fde7c8" fill-rule="evenodd"/><path d="M639.62,173.8l6.65,52.14s11.51-7.41,15.21,3.66-5.63,17.83-11.23,15.88c0,0-.44,33.73-30.55,40.29s-50-34.49-51.52-51.45-10.68-37.51-10.68-37.51l19.86-29.74Z" fill="#ffccba" fill-rule="evenodd"/><path d="M589,237a8.86,8.86,0,1,0-7.17,10.12A8.77,8.77,0,0,0,589,237Z" fill="#ffa398" fill-rule="evenodd"/><path d="M640.26,229.31a8.86,8.86,0,1,0-7.17,10.13A8.78,8.78,0,0,0,640.26,229.31Z" fill="#ffa398" fill-rule="evenodd"/><path d="M659.88,234.19c.22-3.67-1.9-6.78-4.73-6.95s-5.28,2.68-5.5,6.36,1.9,6.78,4.73,7S659.67,237.87,659.88,234.19Z" fill="#ffbaa1" fill-rule="evenodd"/><path d="M646.73,224.33s.71,13-2,14.22c0,0-18.48-45.16-19.62-56.13,0,0-43.45,30-63.29,33.77l-13.26-24.57L580,145.22l47.53,11.54,36.71,33Z" fill="#fde7c8" fill-rule="evenodd"/><path d="M583.27,223.68a3,3,0,1,0-2.45,3.53A3,3,0,0,0,583.27,223.68Z" fill="#8c776d" fill-rule="evenodd"/><path d="M622.63,220.58a3,3,0,1,0-2.44,3.53A3,3,0,0,0,622.63,220.58Z" fill="#8c776d" fill-rule="evenodd"/><path d="M584.1,208.22s3.44,3.47-2.37,2.09-7.44.64-11.05,4.62c-2.9,3.19-4.75,1-3-2.73S576.53,200.43,584.1,208.22Z" fill="#8c776d" fill-rule="evenodd"/><path d="M609,211.34s-1.72,4.56,3,.93,7.06-2.46,12-.31c4,1.73,4.75-1,1.62-3.71S612.75,201.13,609,211.34Z" fill="#8c776d" fill-rule="evenodd"/><path d="M649.54,222.61,637,223" fill="none" stroke="#ff3a8d" stroke-linecap="round" stroke-linejoin="round" stroke-width="2"/><path d="M643.33,227.14s-41.4,22.4-75.14,7.19c0,0,2.77,60.27,51.51,51.44,0,0,25.48-3.16,29.6-29.64C649.3,256.13,633.22,250.46,643.33,227.14Z" fill="#e5f8ff" fill-rule="evenodd"/><path d="M640.05,242.61l.13.18A15.49,15.49,0,0,0,645.9,254c-1.68,2.45-6.21,5.62-20.13,6.68-23,1.76-6.56-3.26-6.56-3.26C635.66,252.73,640.05,242.61,640.05,242.61Z" fill="#d8edfd" fill-rule="evenodd"/><path d="M572,254.2c3.54,2.49,10.21,6.12,21,6.08,0,0,17.15.29-5.42,5a66.79,66.79,0,0,1-10.26,1.28A67.36,67.36,0,0,1,572,254.2Z" fill="#d8edfd" fill-rule="evenodd"/><path d="M649.54,222.61l-11.72,7.15" fill="#fff" stroke="#246cff" stroke-linecap="round" stroke-linejoin="round" stroke-width="2" fill-rule="evenodd"/><path d="M650.25,245.48s1.23,5.69-2,15.67" fill="#fff" stroke="#246cff" stroke-linecap="round" stroke-linejoin="round" stroke-width="2" fill-rule="evenodd"/><path d="M637,223c0-6.73-7.53-9.63-17.29-9.63s-18,2.9-18,9.63,1.94,14.37,17.66,14.48C634.38,237.55,637,229.69,637,223Z" fill="none" stroke="#ff3a8d" stroke-linecap="round" stroke-linejoin="round" stroke-width="2"/><path d="M592.83,224.07c0-6.74-7.54-9.63-17.29-9.63s-18,2.89-18,9.63,1.94,14.36,17.66,14.48C590.22,238.66,592.83,230.81,592.83,224.07Z" fill="none" stroke="#ff3a8d" stroke-linecap="round" stroke-linejoin="round" stroke-width="2"/><path d="M601.8,225.62a13.88,13.88,0,0,0-9,.15" fill="none" stroke="#ff3a8d" stroke-linecap="round" stroke-linejoin="round" stroke-width="2"/><path d="M829.3,480.46s31.15,38.45,22.86,47S740,621.2,726.76,634.5s-22.37,23.62-35.18,6-15.83-14.07-6.28-21.61-2,0-2.29-4.31,4.63-9.23,11.61-10.54,15.42.85,25-7.49,58.34-79.54,62.7-85.83L763.2,485.08Z" fill="#ffccba" fill-rule="evenodd"/><path d="M829.32,480.46s31.13,38.47,22.84,47c-6.17,6.36-65.23,55.14-100.51,85.18h-.06s-3.53-12-24.23-25.52c16.45-20.53,51.18-71,54.9-76.39l-17.37-23.37,1.61-2.52Z" fill="#246cff" fill-rule="evenodd"/><path d="M662.76,326.53s-26.37,69.89-49.28,56.28-38.92-53.67-38.92-53.67-60.44,17.76-76.77,75.18c-6.76,23.75,40.1,64.18,40.1,64.18l-1,102.48-.48,85.17-.13,24.29s7.72,3.08,27.91,6.76c32.09,5.85,83.69,11.17,155-1.44h0l1-210.7,35.16,57s20.39-49.49,74-51.56c0,0-64.5-88.75-94.24-115.21S662.76,326.53,662.76,326.53Z" fill="#00c8eb" fill-rule="evenodd"/><path d="M719.15,605.3l-.27,62.19a51.1,51.1,0,0,1-6.21-1.61c-32.51-11.91-33.24-41.76-33.24-41.76Z" fill="#00a3eb" fill-rule="evenodd"/><path d="M719.59,596.58c4.28,11.45,18.92,27.34,18.92,27.34l0,.26c-4,3.49-10.08,8.68-11.69,10.3-13.22,13.3-22.4,23.64-35.22,6s-15.82-14.06-6.27-21.6-1.95,0-2.25-4.34,4.59-9.2,11.58-10.51S710.06,604.92,719.59,596.58Z" fill="#1bddff" fill-rule="evenodd"/><path d="M631.79,417.58H597.54v116.1h34.25Z" fill="#ff3a8d" fill-rule="evenodd"/><path d="M673.76,495.8l.67-34.25-116.08-2.29-.68,34.25Z" fill="#ff3a8d" fill-rule="evenodd"/><path d="M484.61,628.3l-179.88-1.13-53.6,120.39L228.21,911s114.2-100.63,309-21.21Z" fill="#d8edfd" fill-rule="evenodd"/><path d="M441.84,628,288,664.82l5.45,211.11c52.73-18.82,135.79-30.12,243.76,13.9L484.58,628.29Z" fill="#bcdef8" fill-rule="evenodd"/><path d="M307.5,638.27l4,393.5,2,195.21s24,9.63,41,.9l51.82-517.47,34.23,517.81s22.6,9.74,43.1-4.72l12.14-590.13Z" fill="#246cff" fill-rule="evenodd"/><path d="M495.81,633.36,307.5,638.27,308,691l.44,42.71a375.06,375.06,0,0,0,93.45,20.6l4.41-43.94,3,44.6a289.07,289.07,0,0,0,57.24-2c7.6,23.75,16.26,50.09,25.25,76.82Z" fill="#0a54ed" fill-rule="evenodd"/><path d="M318.89,1221.3l1.29-550.23" fill="none" stroke="#0247d2" stroke-linecap="round" stroke-linejoin="round" stroke-width="2"/><path d="M479.15,1222l6.9-556.89" fill="none" stroke="#0247d2" stroke-linecap="round" stroke-linejoin="round" stroke-width="2"/><path d="M525.2,407.79c.21-56.36-75.35-79.79-75.35-79.79-39.35-14.06-17.25-63.84-17.25-63.84l-54.53,6.78s16.81,43.33-19.75,53.8-75.37,15-80.21,70.47l28.57,32.68-2.36,240.82S419.49,679.86,486,655.88l-8.78-214.14Z" fill="#ffb999" fill-rule="evenodd"/><path d="M432.62,264.15,378.05,271s6.6,17,2.51,32.33c9.28,8.45,28.26,21,49.5,7.64C420.7,291.08,432.62,264.15,432.62,264.15Z" fill="#f2ab8a" fill-rule="evenodd"/><path d="M369.06,220.25l-.19,18s-12.85-5.33-14.55,6.42,8.86,16.82,14.11,13.86c0,0,6.55,33.68,37.87,34.78s43.83-43.58,42.25-60.82S452.43,193,452.43,193l-25.26-26.16Z" fill="#ffb999" fill-rule="evenodd"/><path d="M428.17,238.9a9,9,0,1,1,9,8.83A8.92,8.92,0,0,1,428.17,238.9Z" fill="#ff9487" fill-rule="evenodd"/><path d="M371.14,241.31a9,9,0,1,1,9,8.83A8.92,8.92,0,0,1,371.14,241.31Z" fill="#ff9487" fill-rule="evenodd"/><path d="M425.09,226.3a3.09,3.09,0,1,1,3.08,3.09A3.08,3.08,0,0,1,425.09,226.3Z" fill="#246cff" fill-rule="evenodd"/><path d="M386.66,227a3.09,3.09,0,1,1,3.08,3.09A3.08,3.08,0,0,1,386.66,227Z" fill="#246cff" fill-rule="evenodd"/><path d="M415,155.62s-59.86,53-56,65.56c0,0,61.71-1.28,86-22.44.25,3.87,2.34,24.27,3.51,33.74l7.23-42.14-7.65-7.49-.05.1c-3.32-8.45-8.14-20.28-10.48-21.87C434.25,158.82,415,155.62,415,155.62Z" fill="#1bddff" fill-rule="evenodd"/><path d="M422.92,207.65s-3.36,3.65,2.49,2,7.59.37,11.41,4.27c3.07,3.13,4.87.87,2.94-2.88S430.32,199.43,422.92,207.65Z" fill="#246cff" fill-rule="evenodd"/><path d="M398.15,219.59s2.55,4.26-2.85,1.48-7.5-1.18-12,1.86c-3.64,2.44-4.95-.13-2.3-3.42S392.58,210,398.15,219.59Z" fill="#246cff" fill-rule="evenodd"/><path d="M372,238.9s45.48,14.92,76.49-6.42c0,0,8.15,60.82-42.23,60.81,0,0-26.07,1.46-35-24.3C371.31,269,386.37,260.41,372,238.9Z" fill="#e5f8ff" fill-rule="evenodd"/><path d="M378.12,253.79l-.1.2a15.81,15.81,0,0,1-3.69,12.25c2.12,2.14,7.23,4.5,21.36,3,23.31-2.42,6-4.46,6-4.46C384.35,263.12,378.12,253.79,378.12,253.79Z" fill="#d8edfd" fill-rule="evenodd"/><path d="M448.29,253.06c-3.09,3.13-9.11,8-19.9,9.89,0,0-17.11,3.39,6.32,4a69.12,69.12,0,0,0,10.5-.57A68.85,68.85,0,0,0,448.29,253.06Z" fill="#d8edfd" fill-rule="evenodd"/><path d="M365,235.49l13,5" fill="#fff" stroke="#246cff" stroke-linecap="round" stroke-linejoin="round" stroke-width="2" fill-rule="evenodd"/><path d="M368.43,258.51s-.19,5.92,4.9,15.31" fill="#fff" stroke="#246cff" stroke-linecap="round" stroke-linejoin="round" stroke-width="2" fill-rule="evenodd"/><path d="M356.75,249c-.88-3.64.67-7.14,3.47-7.82s5.78,1.73,6.66,5.37-.68,7.13-3.47,7.81S357.63,252.59,356.75,249Z" fill="#f2ab8a" fill-rule="evenodd"/><path d="M422.74,141s43.17,32.91,22.28,57.74l3.77,36.48S484.1,170.89,422.74,141Z" fill="#00c8eb" fill-rule="evenodd"/><path d="M364.16,230.78s-16.85-69.72,73.45-75.43" fill="none" stroke="#00c8eb" stroke-linecap="round" stroke-linejoin="round" stroke-width="2"/><path d="M369.9,220.57s0-45.18,72-59.71" fill="none" stroke="#00c8eb" stroke-linecap="round" stroke-linejoin="round" stroke-width="2"/><path d="M369.06,220.25l-.19,18s-12.85-5.33-14.55,6.42,8.86,16.82,14.11,13.86c0,0,6.55,33.68,37.87,34.78s43.83-43.58,42.25-60.82S452.43,193,452.43,193l-25.26-26.16Z" fill="#ffb999" fill-rule="evenodd"/><path d="M428.17,238.9a9,9,0,1,1,9,8.83A8.92,8.92,0,0,1,428.17,238.9Z" fill="#ff9487" fill-rule="evenodd"/><path d="M371.14,241.31a9,9,0,1,1,9,8.83A8.92,8.92,0,0,1,371.14,241.31Z" fill="#ff9487" fill-rule="evenodd"/><path d="M425.09,226.3a3.09,3.09,0,1,1,3.08,3.09A3.08,3.08,0,0,1,425.09,226.3Z" fill="#246cff" fill-rule="evenodd"/><path d="M386.66,227a3.09,3.09,0,1,1,3.08,3.09A3.08,3.08,0,0,1,386.66,227Z" fill="#246cff" fill-rule="evenodd"/><path d="M415,155.62s-59.86,53-56,65.56c0,0,61.71-1.28,86-22.44.25,3.87,2.34,24.27,3.51,33.74l7.23-42.14-7.65-7.49-.05.1c-3.32-8.45-8.14-20.28-10.48-21.87C434.25,158.82,415,155.62,415,155.62Z" fill="#1bddff" fill-rule="evenodd"/><path d="M422.92,207.65s-3.36,3.65,2.49,2,7.59.37,11.41,4.27c3.07,3.13,4.87.87,2.94-2.88S430.32,199.43,422.92,207.65Z" fill="#246cff" fill-rule="evenodd"/><path d="M398.15,219.59s2.55,4.26-2.85,1.48-7.5-1.18-12,1.86c-3.64,2.44-4.95-.13-2.3-3.42S392.58,210,398.15,219.59Z" fill="#246cff" fill-rule="evenodd"/><path d="M372,238.9s45.48,14.92,76.49-6.42c0,0,8.15,60.82-42.23,60.81,0,0-26.07,1.46-35-24.3C371.31,269,386.37,260.41,372,238.9Z" fill="#e5f8ff" fill-rule="evenodd"/><path d="M378.12,253.79l-.1.2a15.81,15.81,0,0,1-3.69,12.25c2.12,2.14,7.23,4.5,21.36,3,23.31-2.42,6-4.46,6-4.46C384.35,263.12,378.12,253.79,378.12,253.79Z" fill="#d8edfd" fill-rule="evenodd"/><path d="M448.29,253.06c-3.09,3.13-9.11,8-19.9,9.89,0,0-17.11,3.39,6.32,4a69.12,69.12,0,0,0,10.5-.57A68.85,68.85,0,0,0,448.29,253.06Z" fill="#d8edfd" fill-rule="evenodd"/><path d="M365,235.49l13,5" fill="#fff" stroke="#246cff" stroke-linecap="round" stroke-linejoin="round" stroke-width="2" fill-rule="evenodd"/><path d="M368.43,258.51s-.19,5.92,4.9,15.31" fill="#fff" stroke="#246cff" stroke-linecap="round" stroke-linejoin="round" stroke-width="2" fill-rule="evenodd"/><path d="M356.75,249c-.88-3.64.67-7.14,3.47-7.82s5.78,1.73,6.66,5.37-.68,7.13-3.47,7.81S357.63,252.59,356.75,249Z" fill="#f2ab8a" fill-rule="evenodd"/><path d="M422.74,141s43.17,32.91,22.28,57.74l3.77,36.48S484.1,170.89,422.74,141Z" fill="#00c8eb" fill-rule="evenodd"/><path d="M364.16,230.78s-16.85-69.72,73.45-75.43" fill="none" stroke="#00c8eb" stroke-linecap="round" stroke-linejoin="round" stroke-width="2"/><path d="M369.9,220.57s0-45.18,72-59.71" fill="none" stroke="#00c8eb" stroke-linecap="round" stroke-linejoin="round" stroke-width="2"/><path d="M367.74,320.58s30,53.27,50.29,35.34c0,0,17.64-17.76,23.15-32.29l17.72,21.59-16.19,61.14-36.57,17-60.46-29.89Z" fill="#f2ab8a" fill-rule="evenodd"/><path d="M367.74,320.58a37.13,37.13,0,0,1-9.43,4.14c-36.55,10.48-75.36,15-80.2,70.5l28.57,32.65-2.34,240.82S419.5,689.05,486,665.07l-8.76-223.35,47.92-33.91c.21-56.36-75.35-79.82-75.35-79.82a39.46,39.46,0,0,1-8.67-4.36l-.11.05s-8.43,27.76-26.49,45.26c-13.92,13.47-46.73-48.31-46.73-48.31Z" fill="#246cff" fill-rule="evenodd"/><path d="M305.76,522.72s.32,84.88-41.86,154.94-49.34,175.85-41.14,223.72c5.32,31.07,9.7-9,14.83-40.31,11.94-73,33.23-110.47,89.49-214.4C359.4,587,370,484,370,484Z" fill="#e5f8ff" fill-rule="evenodd"/><path d="M434.79,495.27s1.08,113.2,38.38,219.44,53.17,122.48,61.66,167.19c3.57,18.79,13.93,17.5,2.85-35.45S491.36,567.78,499.17,523.1Z" fill="#e5f8ff" fill-rule="evenodd"/><path d="M367.14,505.35,305.7,523.78c0,1.64-.38,27-7.42,61.44,20.12-.94,42.42-8.41,56.21-14.88C360.83,544.83,364.76,521.58,367.14,505.35Z" fill="#d8edfd" fill-rule="evenodd"/><path d="M435.4,510.15c.49,11.12,1.47,26.78,4,49.72,13.7,7.93,36.7,19.24,60.73,22-2.14-26.6-2.85-48-1-58.72l-16.57-7.2Z" fill="#d8edfd" fill-rule="evenodd"/><path d="M332.7,388.1a11.54,11.54,0,1,1,11.54,11.54A11.53,11.53,0,0,1,332.7,388.1Z" fill="#bcdef8" fill-rule="evenodd"/><path d="M338,388.1a6.27,6.27,0,1,1,6.27,6.26A6.26,6.26,0,0,1,338,388.1Z" fill="#246cff" fill-rule="evenodd"/><path d="M345.68,526.37a177.55,177.55,0,0,1-5.82,60.11" fill="none" stroke="#bcdef8" stroke-linecap="round" stroke-linejoin="round" stroke-width="2"/><path d="M453.18,523.55s-6.55,42.19-2.59,66.2" fill="none" stroke="#bcdef8" stroke-linecap="round" stroke-linejoin="round" stroke-width="2"/><path d="M452.25,321c-.18,12.26-1,35.71-4,64.75a249.89,249.89,0,0,1,22.09,12.16c46.95,29.56,67.55,70.62,67.55,70.62l36.58-139.34-5.16-.78c-7.85-.82-55.6-5.71-92-4.88A104.85,104.85,0,0,1,452.25,321Z" fill="#00c8eb" fill-rule="evenodd"/><path d="M324.83,320.27s12-11.36,29-14c0,0,13.25,6.18,10.8,14.29,0,0-10.7,6.16-14.73,14.5L329,342.81Z" fill="#ffccba" fill-rule="evenodd"/><path d="M541.2,395.64a11.54,11.54,0,1,1,11.54,11.54A11.54,11.54,0,0,1,541.2,395.64Z" fill="#bcdef8" fill-rule="evenodd"/><path d="M546.47,395.64a6.27,6.27,0,1,1,6.27,6.27A6.27,6.27,0,0,1,546.47,395.64Z" fill="#246cff" fill-rule="evenodd"/><path d="M552.74,395.64s-1.7-63.58,22.42-67.52" fill="none" stroke="#0247d2" stroke-linecap="round" stroke-linejoin="round" stroke-width="2"/><path d="M673.75,373.14s-17,0-19.28,27.71c-2.3,27.58-7.36,42.58,17.7,42.58" fill="none" stroke="#ff3a8d" stroke-linecap="round" stroke-linejoin="round" stroke-width="2"/><path d="M675.11,373.1s17,0,19.29,27.71c2.29,27.58,7.35,42.58-17.7,42.58" fill="none" stroke="#ff3a8d" stroke-linecap="round" stroke-linejoin="round" stroke-width="2"/><path d="M674.79,374.42s.27-47.44-11.87-48.59" fill="none" stroke="#0247d2" stroke-linecap="round" stroke-linejoin="round" stroke-width="2"/><path d="M671,440.82h3v5.12h-3Z" fill="#246cff" fill-rule="evenodd"/><path d="M674.79,440.82h3v5.12h-3Z" fill="#246cff" fill-rule="evenodd"/><path d="M537.85,471.6l-15.51-18.37s-30.13-38.88-.22-21.39,37.56,25.94,14.84,129.5h0Z" fill="#00a3eb" fill-rule="evenodd"/><path d="M441.39,323.63C435,404,437,466.09,437,466.09c-3.88-.36-12.3-.16-20,.06-.86,0-1.39,0-2.23,0-8.41.26-15.7.6-15.7.6l-7.53,37.4c2.13,1.09,3.67,1.79,5.73,2.83,38.61,19.63,65.74,31.56,84.23,37.46,32.46,10.35,40,3.28,43.89-8.29,2.27-6.7.46-128.35.46-128.35,0-62.59-75.81-79.81-75.81-79.81A39.68,39.68,0,0,1,441.39,323.63Z" fill="#e5f8ff" fill-rule="evenodd"/><path d="M483.44,473s25.73,14.06,23.76,5.45-34-25.46-37.53-24.66l-2.52,7.36Z" fill="#d8edfd" fill-rule="evenodd"/><path d="M471.82,456.57S481.52,408.14,486,410s14.43,66.15,14.43,66.15l-20.81-4.44Z" fill="#d8edfd" fill-rule="evenodd"/><path d="M464.29,348.77s23.53,41.09,17.55,49.69c-3.67,5.28-34.58,6.91-30.69,15.25s31.66,13.4,13.67,29.43c0,0-16.65,15.53-13.36,37.43" fill="none" stroke="#bcdef8" stroke-linecap="round" stroke-linejoin="round" stroke-width="2"/><path d="M459.29,412.62h23.52V418H459.29Z" fill="#246cff" fill-rule="evenodd"/><path d="M458.35,451.21,437,462c0,.31,0,4.14,0,4.14-1.62-.15-5.52,0-8.34,0l-32.82,16.52-4.31,21.54c2.13,1.09,3.67,1.79,5.73,2.83,12,6.12,21.07,10.21,31,14.89,17.28-16.34,40.19-40.3,39.52-54.3Z" fill="#d8edfd" fill-rule="evenodd"/><path d="M419.43,453.55s32.39-6.64,42.25-4.54S481.9,469.55,483.44,473c0,0-28.67-11.5-34.94-7.41s-33.27,27.28-33.27,27.28l-13.36-22.12Z" fill="#ffb999" fill-rule="evenodd"/><path d="M450.84,448.81c-4.09.3-8.66.9-13,1.53,0,0,5.54,4.67,8.23,17.17.57-.41,2-1.7,2.45-2,6.28-4.08,34.95,7.42,34.95,7.42-1.54-3.41-11.9-21.84-21.75-23.94A43,43,0,0,0,450.84,448.81Z" fill="#1bddff" fill-rule="evenodd"/><path d="M366.87,320.58a37.29,37.29,0,0,1-9.43,4.14c-36.55,10.48-75.37,15-80.2,70.5,0,0-21.43,151.11,6.49,155.38,5.43.83,12.76,0,20.88-1.69,33.6-7,85.43-33.17,119.34-63,0,0-14.8-17.82-4.52-32.39l-53,11.29S378.07,342.3,366.87,320.58Z" fill="#e5f8ff" fill-rule="evenodd"/><path d="M323.79,474.6s-39.89,10.83-35.66,3.32,22.66-38.42,29.12-33.11S323.79,474.6,323.79,474.6Z" fill="#d8edfd" fill-rule="evenodd"/><path d="M319.36,433.18s-.49-28.6,3.18-24.6,13.9,19.2,13.9,19.2-6,5.33-6.14,13.23Z" fill="#d8edfd" fill-rule="evenodd"/><path d="M333.23,351.76s-23.52,41.09-17.55,49.68c3.68,5.29,34.59,6.91,30.69,15.26S327.8,431.09,330.3,441" fill="none" stroke="#bcdef8" stroke-linecap="round" stroke-linejoin="round" stroke-width="2"/><path d="M371.2,463.82s-11,1.28-20.27-11.7-16.2-16.58-17.21-15.22,5.9,8.4,5.31,10c0,0-11.87-16.35-26.16-18.85s-16.77.66-9.36,3,16.38,7.7,12.46,7.71-20.39-8.08-24.7-5.38c-3.92,2.47,14.92,6.24,21.44,11.83s-16.87-6-21.62-2.83,11.29,5.66,19,10.69-11.1-5-15.18-1,8.78,2.46,15.87,10.15,4.92,7.43,13,12.32Z" fill="#ffb999" fill-rule="evenodd"/><path d="M304.33,427.11c-6.38-.05-6.38,2.2-.82,4,7.41,2.37,16.4,7.68,12.49,7.69s-20.4-8.1-24.7-5.4c-3.92,2.46,14.9,6.24,21.43,11.83s-16.9-6-21.65-2.83,11.32,5.7,19,10.74-11.13-5-15.21-1,8.77,2.45,15.86,10.14,4.94,7.43,13,12.32L356,467.28a33.58,33.58,0,0,0,1.56-8.22,32.69,32.69,0,0,1-6.6-6.92c-9.23-13-16.22-16.57-17.22-15.22s5.87,8.4,5.28,10c0,0-11.82-16.36-26.11-18.86A54,54,0,0,0,304.33,427.11Z" fill="#1bddff" fill-rule="evenodd"/><path d="M324.83,320.27s-7.55,4.84-16.49,19.84-14.76,23.37-6.21,31.17,26.9,15.71,29,7.2,2.81-3.49,7.1-4.7,3.27-27.52,11.61-38.72C349.88,335.06,344.72,313.59,324.83,320.27Z" fill="#00c8eb" fill-rule="evenodd"/><path d="M332.7,388.1a11.54,11.54,0,1,1,11.54,11.54A11.53,11.53,0,0,1,332.7,388.1Z" fill="#bcdef8" fill-rule="evenodd"/><path d="M338,388.1a6.27,6.27,0,1,1,6.27,6.26A6.26,6.26,0,0,1,338,388.1Z" fill="#246cff" fill-rule="evenodd"/><path d="M344.24,388.1s-1.7-63.58,22.42-67.52" fill="none" stroke="#0247d2" stroke-linecap="round" stroke-linejoin="round" stroke-width="2"/><path d="M451.73,370.23s-17,0-19.28,27.71c-2.3,27.58-7.36,42.58,17.7,42.58" fill="none" stroke="#00c8eb" stroke-linecap="round" stroke-linejoin="round" stroke-width="2"/><path d="M453.09,370.19s17,0,19.29,27.71,7.35,42.59-17.7,42.59" fill="none" stroke="#00c8eb" stroke-linecap="round" stroke-linejoin="round" stroke-width="2"/><path d="M452.77,371.51s.27-47.44-11.87-48.58" fill="none" stroke="#0247d2" stroke-linecap="round" stroke-linejoin="round" stroke-width="2"/><path d="M449,437.92h3V443h-3Z" fill="#246cff" fill-rule="evenodd"/><path d="M452.77,437.92h3V443h-3Z" fill="#246cff" fill-rule="evenodd"/><path d="M698.74,937.06s76.76-75.68,144.6-52.35,59,42.29,129.28,43.89c36.51.83,48.88,12.17,48.88,12.17l-23.73-215L938.18,578.21,801.54,582.4,729.59,691.89Z" fill="#d8edfd" fill-rule="evenodd"/><path d="M938.18,578.22l-136.65,4.19-47.65,72.53L742,715.51s17.87,116.35,26.87,175.08c23.18-9.59,49.46-14.51,74.52-5.89,67.83,23.32,59,42.3,129.3,43.9,36.51.83,48.83,12.17,48.83,12.17l-23.69-215Z" fill="#bcdef8" fill-rule="evenodd"/><path d="M957,652.34l6.53,559.28s-20.39,20.49-41.19,2.36L858.49,678l-6.27,538.36s-28.06,14.44-42.76-1l-48.11-560Z" fill="#ff3a8d" fill-rule="evenodd"/><path d="M957.06,652.33l-195.73,3L769.54,751a368.63,368.63,0,0,0,56.12,7C835.92,798.32,848,848.79,856,892.22L858.47,678,868,757.72a459.48,459.48,0,0,0,90.17-14.1Z" fill="#b5249b" fill-rule="evenodd"/><path d="M815.08,1214.47l-44-508.12" fill="none" stroke="#b5249b" stroke-linecap="round" stroke-linejoin="round" stroke-width="2"/><path d="M960.09,1209.06,943.51,706.21" fill="none" stroke="#b5249b" stroke-linecap="round" stroke-linejoin="round" stroke-width="2"/><path d="M929.31,652.05s55.32,74.63,87,268.05c10.62,64.81,16.56-29.47,16.74-56.75.85-129.2-48.58-287.65-52.65-298.24" fill="#e5f8ff" fill-rule="evenodd"/><path d="M730,578.12s-41.53,243.52-38.71,329,15.88-13.1,25.59-47.68c25.31-90.09,48.3-159.71,66.21-191.89" fill="#e5f8ff" fill-rule="evenodd"/><path d="M990.28,597.36l-53.66,66.42c5.26,8.76,12.34,22.15,22,44.66,24.2-4.37,40.62-21.62,50.5-36C1002.42,642.24,995.68,616.36,990.28,597.36Z" fill="#d8edfd" fill-rule="evenodd"/><path d="M757.57,624.65l-36.29,8.58-.11.16c-1.54,9.86-3.39,22.28-5.14,33.93,18.82,23.09,35,40,45.46,50.61,6.61-17.78,13-33.57,18.71-44.77l-16.62-38.38Z" fill="#d8edfd" fill-rule="evenodd"/><path d="M726.41,386c-.22-63.87,78.81-90.42,78.81-90.42,41.16-15.94,18-72.35,18-72.35l57,7.69S864,270.26,898.5,290.49c26.41,15.48,81.31,18.32,86.37,81.22l-29.88,37-9.93,224.68s-85.22,31.7-154.82,4.53L776.56,424.43Z" fill="#e49b79" fill-rule="evenodd"/><path d="M823.24,223.19l57.09,7.72s-5.87,18.8-1.59,36.14c-9.71,9.56-30.59,24.26-52.82,9.15C835.72,253.71,823.24,223.19,823.24,223.19Z" fill="#cc8a6b" fill-rule="evenodd"/><path d="M898.5,290.49s-34,63.61-55.16,43.29c0,0-27.27-24.21-33-40.67l-14.55,21.95,16.94,69.29L851,403.65l63.24-33.87Z" fill="#cc8a6b" fill-rule="evenodd"/><path d="M902.33,294.63c28.49,18.34,77.48,14.18,82.54,77.09l-29.88,37-1.13,247.69S831,682.66,761.43,655.49L744.16,424.92,726.4,386c-.22-63.87,78.82-90.45,78.82-90.45,3.52-1.36,2.45-.55,5.08-2.43h0s12.27,29.79,31.82,48.83c27.16,26.44,56.38-51.45,56.38-51.45S898.92,292.43,902.33,294.63Z" fill="#ff3a8d" fill-rule="evenodd"/><path d="M882.33,155.16c6.62.81,2.4,49.4,2.4,49.4s13.59-5.64,15.38,6.78-9.37,17.78-14.92,14.65c0,0-6.92,35.6-40,36.77s-46.32-46.07-44.66-64.29-4.1-41.73-4.1-41.73l26.7-27.65S875.7,154.35,882.33,155.16Z" fill="#e49b79" fill-rule="evenodd"/><path d="M822.05,205.27a9.53,9.53,0,1,0-9.52,9.33A9.44,9.44,0,0,0,822.05,205.27Z" fill="#fa5b7f" fill-rule="evenodd"/><path d="M879.73,204.55a9.53,9.53,0,1,0-9.52,9.33A9.42,9.42,0,0,0,879.73,204.55Z" fill="#fa5b7f" fill-rule="evenodd"/><path d="M824.28,192a3.26,3.26,0,1,0-3.26,3.27A3.26,3.26,0,0,0,824.28,192Z" fill="#212e96" fill-rule="evenodd"/><path d="M864.9,192a3.26,3.26,0,1,0-3.26,3.27A3.26,3.26,0,0,0,864.9,192Z" fill="#212e96" fill-rule="evenodd"/><path d="M897.54,215.9c.93-3.85-.71-7.55-3.66-8.26s-6.11,1.82-7,5.67.71,7.54,3.66,8.25S896.61,219.74,897.54,215.9Z" fill="#cc8a6b" fill-rule="evenodd"/><path d="M876.6,157s-33.11,30.32-75.6,13.36-13.83-26.83-13.83-26.83c15.83-7.17,25-28.42,45.55-32.8s38.09,5.38,44.87,17.55c0,0,24.74-2.59,24.74,22.94s-13.5,50.67-13.5,50.67-5.31,11.44-5,2.55C884.18,191.9,888.23,188,876.6,157Z" fill="#212e96" fill-rule="evenodd"/><path d="M881.38,205.27s-48.07,15.76-80.85-6.79c0,0-8.61,64.28,44.64,64.28,0,0,27.56,1.54,37-25.68C882.15,237.08,866.23,228,881.38,205.27Z" fill="#e5f8ff" fill-rule="evenodd"/><path d="M875,221l.11.22A16.62,16.62,0,0,0,879,234.16c-2.25,2.27-7.65,4.76-22.58,3.21-24.65-2.55-6.32-4.7-6.32-4.7C868.37,230.87,875,221,875,221Z" fill="#d8edfd" fill-rule="evenodd"/><path d="M800.79,220.23c3.26,3.32,9.63,8.44,21,10.46,0,0,18.08,3.59-6.68,4.22a72.58,72.58,0,0,1-11.1-.6A72.42,72.42,0,0,1,800.79,220.23Z" fill="#d8edfd" fill-rule="evenodd"/><path d="M888.83,201.67,875.06,207" fill="#fff" stroke="#246cff" stroke-linecap="round" stroke-linejoin="round" stroke-width="2" fill-rule="evenodd"/><path d="M885.19,226s.21,6.26-5.17,16.18" fill="#fff" stroke="#246cff" stroke-linecap="round" stroke-linejoin="round" stroke-width="2" fill-rule="evenodd"/><path d="M827.13,183.28s2.9,4.37-2.93,1.7-8-.87-12.62,2.57c-3.72,2.76-5.23.1-2.6-3.5S820.77,173.48,827.13,183.28Z" fill="#212e96" fill-rule="evenodd"/><path d="M852.75,183.65s-2.69,4.5,3,1.57,7.93-1.25,12.72,2c3.85,2.59,5.23-.14,2.43-3.61S858.64,173.56,852.75,183.65Z" fill="#212e96" fill-rule="evenodd"/><path d="M769.27,685.62l7.72,8.17s19.37-9.77,28.74-22.19l-8-14-24.11-2.49Z" fill="#e49b79" fill-rule="evenodd"/><path d="M942.64,679.67l-7.34,8.91s-19.64-12.06-29-24.48l5.19-9.79,24.69-3.14Z" fill="#e49b79" fill-rule="evenodd"/><path d="M772.36,696.23s24.07-10.51,36.87-29.19" fill="none" stroke="#761f66" stroke-linecap="round" stroke-linejoin="round" stroke-width="2"/><path d="M945.74,694s-27.16-12-40-30.67" fill="none" stroke="#761f66" stroke-linecap="round" stroke-linejoin="round" stroke-width="2"/><path d="M898.52,290.48s-5.59,110-9.6,201.56,30.66,147.79,30.66,147.79l-8.09,14.48s24.61,6.4,31.15,25.36c8.09-8.61,18.36-19.69,30.07-32.17,22.42-23.9,52.41-64.45,61.81-83.79,16.45-33.84-20.94-120-37-189.07s-60-73-74.89-76.07S898.52,290.48,898.52,290.48ZM962.84,461.8c0-4.49,20,60.68,19,65.19s-7,13.13-7,13.13Z" fill="#e5f8ff" fill-rule="evenodd"/><path d="M810.28,293.1s-9.19,5-24.07,8.1-58.79,6.95-74.89,76.07-53.5,155.23-37,189.07c9.4,19.34,39.38,59.83,61.8,83.73C749,663.85,762,678,769.27,685.62c.11-.3,6.67-16.94,28.46-28l-8.52-15.22s34.67-56.2,30.66-147.74S810.28,293.1,810.28,293.1ZM735.6,495.36,734,542.7s-6-8.63-7-13.14S735.64,490.87,735.6,495.36Z" fill="#e5f8ff" fill-rule="evenodd"/><path d="M921.67,389.18h28v5.27h-28Z" fill="#ff3a8d" fill-rule="evenodd"/><path d="M735.6,495.36l10.73-41.44s6.76-16,9.31,16.95,23.13,110.22,47.74,139.87l-10,39.08S741,555.83,734,542.7Z" fill="#d8edfd" fill-rule="evenodd"/><path d="M788.4,311s-41.16,52.59-20.61,68c28,21,19.08,22.83,10.8,31.74s-14.4,11.45,16.68,78.84-6.78,121.09-6.78,121.09" fill="none" stroke="#bcdef8" stroke-linecap="round" stroke-linejoin="round" stroke-width="2"/><path d="M919.58,639.83s-9.51-17.59-13.9-30.92c0,0,26-36.76,38.14-66.38,9.23-22.62,12.84-87.76,13.16-91.34,1.23-13.87,5.86,10.61,5.86,10.61l12,78.32Z" fill="#d8edfd" fill-rule="evenodd"/><path d="M909.2,302.51s43.9,50.34,24.21,66.86c-26.81,22.48-17.84,23.81-9.1,32.26s15,10.67-12.47,79.62,13.22,120.56,13.22,120.56" fill="none" stroke="#bcdef8" stroke-linecap="round" stroke-linejoin="round" stroke-width="2"/><path d="M790.43,360.62a11.34,11.34,0,1,1,13,9.47A11.33,11.33,0,0,1,790.43,360.62Z" fill="#bcdef8" fill-rule="evenodd"/><path d="M795.55,359.83a6.16,6.16,0,1,1,7,5.14A6.16,6.16,0,0,1,795.55,359.83Z" fill="#246cff" fill-rule="evenodd"/><path d="M801.64,358.88s-11.26-61.51,11.58-69" fill="none" stroke="#ff3a8d" stroke-linecap="round" stroke-linejoin="round" stroke-width="2"/><path d="M909.55,335.93s-16.7,0-19,27.25C888.33,390.29,883.35,405,908,405" fill="none" stroke="#00c8eb" stroke-linecap="round" stroke-linejoin="round" stroke-width="2"/><path d="M910.88,335.89s16.69,0,19,27.25c2.25,27.12,7.23,41.87-17.41,41.87" fill="none" stroke="#00c8eb" stroke-linecap="round" stroke-linejoin="round" stroke-width="2"/><path d="M910.56,337.19s.27-46.65-11.67-47.77" fill="none" stroke="#ff3a8d" stroke-linecap="round" stroke-linejoin="round" stroke-width="2"/><path d="M900.34,400h2.95v5h-2.95Z" fill="#246cff" fill-rule="evenodd"/><path d="M904,400h3v5h-3Z" fill="#246cff" fill-rule="evenodd"/></g><path d="M712.26,16.92c47,0,85.12,32.43,85.12,72.44s-38.11,72.44-85.12,72.44A98.14,98.14,0,0,1,685.13,158c-8.35,7.47-23.39,16.25-48.78,16.19,0,0,11.39-16.45,16.13-33.28-15.64-13.13-25.35-31.36-25.35-51.53C627.13,49.35,665.24,16.92,712.26,16.92Z" fill="#e5f8ff" fill-rule="evenodd"/><path d="M692.29,64.32a15.35,15.35,0,0,0-15.5,15.2s-2,29.9,30.91,36.28c32.92-6.38,31.09-36.28,31.09-36.28a15.5,15.5,0,0,0-31,0A15.35,15.35,0,0,0,692.29,64.32Z" fill="#ff3a8d" fill-rule="evenodd"/><path d="M721.7,80.92V94.81H707.79V109H721.7v13.89h14.16V109h13.88V94.81H735.86V80.92Z" fill="#1bddff" fill-rule="evenodd"/><text transform="translate(34.23 416.73)" font-size="41.82" fill="#013eba" font-family="HelveticaNeue-Bold, Helvetica Neue" font-weight="700">#istayathome</text><text transform="translate(34.23 379.05)" font-size="33.18" fill="#013eba" font-family="HelveticaNeue, Helvetica Neue">help us!</text><text transform="translate(34.23 438.26)" font-size="14.3" fill="#013eba" font-family="HelveticaNeue-Thin, Helvetica Neue" font-weight="200"><tspan letter-spacing="-0.02em">W</tspan><tspan x="12.37" y="0">e a</tspan><tspan x="30.92" y="0" letter-spacing="-0.01em">r</tspan><tspan x="34.72" y="0" letter-spacing="0em">e st</tspan><tspan x="56.7" y="0" letter-spacing="-0.01em">r</tspan><tspan x="60.5" y="0">onger </tspan><tspan x="98.66" y="0" letter-spacing="-0.01em">t</tspan><tspan x="102.16" y="0" letter-spacing="0em">ogether</tspan></text></svg>